<svg width="152" height="93" viewBox="0 0 152 93" fill="none" xmlns="http://www.w3.org/2000/svg">
<path d="M9.19093 91.5725H9.18681C9.14146 91.5667 9.1093 91.5725 9.07797 91.5758C9.06395 91.5799 9.05488 91.5807 9.03427 91.5807C8.8809 91.5807 8.86606 91.5758 8.74073 91.4425L6.58454 88.8836L8.40349 86.9058C8.67641 86.6061 9.01201 86.1955 9.1662 85.7037C9.20083 85.5845 9.16949 85.5017 9.13486 85.4587C9.08127 85.38 8.9848 85.3328 8.86276 85.3254L7.99286 85.2741C7.72241 85.2459 7.63006 85.39 7.56492 85.5241L7.54019 85.5804C7.34312 86.0456 7.31261 86.1168 7.09163 86.3842L5.10612 88.8033V85.7012C5.10612 85.4761 4.93956 85.3138 4.70374 85.3138H3.8693C3.63018 85.3138 3.46362 85.4761 3.46362 85.7012V92.4252C3.46362 92.6503 3.63018 92.8093 3.8693 92.8093H4.70292C4.93956 92.8093 5.1053 92.6503 5.1053 92.4252V89.4035L7.28458 92.2372C7.55668 92.5974 7.8898 92.931 8.47687 92.931C8.84462 92.931 8.93945 92.8929 9.07385 92.8358L9.09941 92.8275C9.32863 92.7513 9.45644 92.6065 9.45644 92.4285L9.42675 91.82C9.41603 91.6668 9.32121 91.5725 9.19093 91.5725Z" fill="#878787"/>
<path d="M15.0485 85.2236C12.8346 85.2236 11.5648 86.6409 11.5648 89.1146C11.5648 91.5825 12.8338 92.9998 15.0485 92.9998C17.3028 92.9998 18.5413 91.6189 18.5413 89.1146C18.5413 86.6409 17.269 85.2236 15.0485 85.2236ZM15.0485 91.811C13.5643 91.811 13.3071 90.9417 13.3071 89.1146C13.3071 87.0507 13.7144 86.4249 15.0485 86.4249C16.3909 86.4249 16.8015 87.0507 16.8015 89.1146C16.8015 90.9425 16.5401 91.811 15.0485 91.811Z" fill="#878787"/>
<path d="M27.1421 91.5804C27.1017 91.5804 27.0696 91.5879 27.0333 91.5961C27.011 91.597 26.9879 91.6011 26.9632 91.6011C26.8115 91.6011 26.7958 91.6011 26.696 91.4554L25.2555 89.5033C26.5089 89.2715 27.1215 88.5827 27.1215 87.4063C27.1215 85.9998 26.2236 85.3135 24.3815 85.3135H22.1841C21.8065 85.3135 21.5327 85.5759 21.5327 85.9418V92.4248C21.5327 92.6541 21.7001 92.809 21.9351 92.809H22.7803C23.0161 92.809 23.1736 92.6575 23.1736 92.4248V86.4551H24.1111C25.0824 86.4551 25.3784 86.7333 25.3784 87.6439C25.3784 88.5546 25.0403 88.8766 24.0921 88.8766L23.4011 88.841V89.3063L25.3124 92.2419C25.6299 92.7336 25.9729 92.9381 26.4594 92.9381C26.8362 92.9381 26.9327 92.9 27.0696 92.847L27.0902 92.8346C27.3392 92.7518 27.4686 92.6053 27.4455 92.4356L27.3862 91.8279C27.3746 91.6889 27.2881 91.5986 27.1421 91.5804Z" fill="#878787"/>
<path d="M34.9861 91.5801H31.9807V89.4657H33.8606C34.1006 89.4657 34.2663 89.3101 34.2663 89.0824V88.6238C34.2663 88.3936 34.1039 88.2355 33.8606 88.2355H31.9807V86.5516H34.8773C35.1189 86.5516 35.2797 86.4001 35.2797 86.1675V85.7097C35.2797 85.4762 35.1181 85.314 34.8773 85.314H31.0003C30.6235 85.314 30.3489 85.5764 30.3489 85.9423V92.1844C30.3489 92.5495 30.6235 92.8095 31.0003 92.8095H34.987C35.2236 92.8095 35.3902 92.6546 35.3902 92.4253V91.9667C35.3893 91.7283 35.2351 91.5801 34.9861 91.5801Z" fill="#878787"/>
<path d="M42.0831 85.787C41.9503 85.4708 41.7409 85.3135 41.4465 85.3135H40.6121C40.3177 85.3135 40.0934 85.4782 39.9664 85.787C39.9458 85.8367 37.9941 90.6797 37.6288 91.6276C37.4977 91.9579 37.3972 92.3959 37.3873 92.4753C37.3633 92.5929 37.3996 92.6674 37.431 92.7113C37.4697 92.7551 37.5423 92.809 37.6758 92.809L38.5556 92.8504C38.7156 92.8504 38.8335 92.7551 38.8747 92.5879C38.883 92.5598 38.897 92.5051 38.9094 92.4422C38.9399 92.2998 38.9894 92.0945 39.0512 91.9356L39.4165 90.904H42.4582L42.8359 91.9496C42.8837 92.0655 42.9126 92.2005 42.9422 92.3338C42.9637 92.4157 42.9769 92.4969 43.0024 92.5772C43.0527 92.7734 43.1665 92.8628 43.3628 92.8628H43.3652L44.3844 92.8222C44.4891 92.8222 44.579 92.7816 44.6342 92.7171C44.6812 92.6591 44.7018 92.5854 44.6878 92.5134C44.6482 92.2394 44.5501 91.8718 44.4446 91.6276L42.0831 85.787ZM42.0352 89.7152H39.851L40.7984 87.2805C40.8743 87.1 40.9097 86.8641 40.9336 86.6952C40.9518 86.8641 40.9897 87.1 41.059 87.2755L42.0352 89.7152Z" fill="#878787"/>
<path d="M53.2416 85.3252H52.558C52.323 85.3252 52.1639 85.4792 52.1639 85.7093L52.2051 89.8238C52.2117 90.371 52.3387 91.0126 52.3939 91.2593H52.3799C52.3041 91.059 52.0476 90.3768 51.8596 90.0391L49.4734 85.7383C49.2821 85.3906 49.0661 85.3252 48.6826 85.3252H47.8581C47.6099 85.3252 47.3156 85.4262 47.3156 85.9014V92.425C47.3156 92.6576 47.473 92.8091 47.7089 92.8091H48.3932C48.6299 92.8091 48.7874 92.6576 48.7874 92.425L48.747 88.313C48.7379 87.7682 48.6101 87.1225 48.5606 86.8733H48.5722C48.648 87.0761 48.9053 87.7558 49.0949 88.0977L51.4787 92.3976C51.67 92.7487 51.8868 92.8099 52.2694 92.8099H53.094C53.3438 92.8099 53.6365 92.7122 53.6365 92.2346V85.7101C53.6357 85.4792 53.479 85.3252 53.2416 85.3252Z" fill="#878787"/>
<path d="M65.3814 85.3135H61.5052C61.1267 85.3135 60.8513 85.5759 60.8513 85.9418V92.4248C60.8513 92.6575 61.0088 92.809 61.2455 92.809H62.0914C62.3248 92.809 62.4848 92.6575 62.4848 92.4248V89.6771H64.3655C64.603 89.6771 64.7704 89.5165 64.7704 89.293V88.8344C64.7704 88.6026 64.6063 88.4469 64.3655 88.4469H62.4848V86.5511H65.3806C65.6197 86.5511 65.7829 86.3996 65.7829 86.167V85.7092C65.7838 85.4757 65.6197 85.3135 65.3814 85.3135Z" fill="#878787"/>
<path d="M71.1657 85.2236C68.9502 85.2236 67.682 86.6409 67.682 89.1146C67.682 91.5825 68.951 92.9998 71.1657 92.9998C73.4184 92.9998 74.6593 91.6189 74.6593 89.1146C74.6593 86.6409 73.3854 85.2236 71.1657 85.2236ZM71.1657 91.811C69.6832 91.811 69.4193 90.9417 69.4193 89.1146C69.4193 87.0507 69.83 86.4249 71.1657 86.4249C72.5081 86.4249 72.9171 87.0507 72.9171 89.1146C72.9171 90.9425 72.6549 91.811 71.1657 91.811Z" fill="#878787"/>
<path d="M82.0671 91.5718H79.29V85.7014C79.29 85.4762 79.1267 85.314 78.8876 85.314H78.0507C77.8165 85.314 77.6483 85.4762 77.6483 85.7014V92.1844C77.6483 92.5975 77.9773 92.8095 78.3005 92.8095H82.0671C82.3037 92.8095 82.4694 92.6505 82.4694 92.4253V91.9667C82.4694 91.7299 82.3087 91.5718 82.0671 91.5718Z" fill="#878787"/>
<path d="M90.6597 91.5725C90.6118 91.5667 90.5805 91.5725 90.5483 91.5758C90.5368 91.5799 90.5228 91.5807 90.5046 91.5807C90.3513 91.5807 90.3323 91.5725 90.2127 91.4425L88.0549 88.8836L89.873 86.9058C90.1476 86.6061 90.4807 86.1955 90.6374 85.7037C90.6704 85.5812 90.6374 85.5017 90.6019 85.4587C90.5508 85.38 90.4543 85.3328 90.3307 85.3254L89.4608 85.2741C89.1953 85.2459 89.1013 85.39 89.0345 85.5241L89.0064 85.5845C88.8176 86.034 88.7797 86.1168 88.562 86.3842L86.5757 88.8033V85.7012C86.5757 85.4761 86.4083 85.3138 86.1716 85.3138H85.338C85.0997 85.3138 84.9315 85.4761 84.9315 85.7012V92.4252C84.9315 92.6503 85.0997 92.8093 85.338 92.8093H86.1716C86.4083 92.8093 86.5757 92.6503 86.5757 92.4252V89.4035L88.7566 92.2372C89.0147 92.58 89.3593 92.931 89.9481 92.931C90.315 92.931 90.4106 92.8929 90.5459 92.8358L90.5714 92.8275C90.7998 92.7513 90.9268 92.6065 90.9268 92.4285L90.8955 91.82C90.8839 91.6668 90.7899 91.5725 90.6597 91.5725Z" fill="#878787"/>
<path d="M103.264 85.3489L102.429 85.2951L102.397 85.2935C102.156 85.2935 102.09 85.4516 102.055 85.6205C102.03 85.7016 102.017 85.7918 102.001 85.8812C101.982 86.0005 101.964 86.1263 101.923 86.2438L100.473 90.8633C100.42 91.0388 100.388 91.259 100.37 91.4263C100.357 91.259 100.33 91.0388 100.269 90.8633L98.8168 86.2289C98.769 86.0973 98.7434 85.9665 98.7187 85.8423C98.7039 85.7604 98.6899 85.6908 98.6709 85.6172C98.6272 85.4615 98.5596 85.2935 98.3262 85.2935L97.2997 85.3498C97.1884 85.3522 97.0993 85.3936 97.0432 85.4648C97.0103 85.5087 96.9698 85.594 96.9946 85.714C97.0177 85.8481 97.0993 86.2968 97.1958 86.5758L99.2431 92.322C99.3503 92.625 99.6068 92.8096 99.9102 92.8096H100.701C101.015 92.8096 101.284 92.6184 101.389 92.322L103.367 86.5758C103.476 86.2679 103.533 85.9226 103.566 85.743L103.573 85.714C103.593 85.6006 103.558 85.5253 103.524 85.4797C103.474 85.4069 103.383 85.358 103.264 85.3489Z" fill="#878787"/>
<path d="M107.612 85.3135H106.789C106.553 85.3135 106.395 85.4699 106.395 85.7009V92.4248C106.395 92.6575 106.553 92.809 106.789 92.809H107.612C107.851 92.809 108.016 92.6541 108.016 92.4248V85.7009C108.016 85.4757 107.85 85.3135 107.612 85.3135Z" fill="#878787"/>
<path d="M115.82 91.5718H113.043V85.7014C113.043 85.4762 112.876 85.314 112.64 85.314H111.805C111.568 85.314 111.402 85.4762 111.402 85.7014V92.1844C111.402 92.5975 111.728 92.8095 112.052 92.8095H115.821C116.057 92.8095 116.223 92.6505 116.223 92.4253V91.9667C116.222 91.7349 116.056 91.5718 115.82 91.5718Z" fill="#878787"/>
<path d="M123.105 91.5718H120.329V85.7014C120.329 85.4762 120.163 85.314 119.926 85.314H119.092C118.854 85.314 118.688 85.4762 118.688 85.7014V92.1844C118.688 92.5975 119.014 92.8095 119.341 92.8095H123.105C123.344 92.8095 123.511 92.6505 123.511 92.4253V91.9667C123.511 91.7299 123.346 91.5718 123.105 91.5718Z" fill="#878787"/>
<path d="M129.968 85.787C129.842 85.4708 129.633 85.3135 129.336 85.3135H128.504C128.207 85.3135 127.984 85.4782 127.857 85.787C127.837 85.8367 125.884 90.6797 125.522 91.6276C125.391 91.9596 125.287 92.3959 125.278 92.4753C125.254 92.5929 125.291 92.6674 125.324 92.7113C125.362 92.7551 125.43 92.809 125.566 92.809L126.446 92.8504C126.608 92.8504 126.724 92.7551 126.764 92.5879C126.773 92.5598 126.786 92.5018 126.8 92.4364C126.836 92.2907 126.881 92.0945 126.943 91.9364L127.309 90.9049H130.35L130.728 91.9505C130.776 92.0664 130.805 92.2013 130.832 92.3296C130.853 92.4166 130.872 92.4977 130.894 92.578C130.946 92.7742 131.058 92.8636 131.255 92.8636L132.277 92.823C132.378 92.823 132.47 92.7825 132.526 92.7179C132.574 92.6599 132.595 92.5863 132.582 92.5142C132.541 92.2402 132.443 91.8726 132.336 91.6284L129.968 85.787ZM129.925 89.7152H127.74L128.69 87.2805C128.764 87.1 128.803 86.8674 128.821 86.696C128.842 86.8674 128.879 87.1 128.948 87.2755L129.925 89.7152Z" fill="#878787"/>
<path d="M140.699 88.7272C140.684 88.7272 140.668 88.7272 140.653 88.7272L139.611 88.7984C139.506 88.8108 139.428 88.8538 139.385 88.9341C139.348 88.9987 139.337 89.0815 139.352 89.1966C139.365 89.2918 139.381 89.3762 139.395 89.4548C139.436 89.68 139.469 89.8547 139.469 90.1809V91.8043C139.32 91.8325 138.959 91.8995 138.66 91.8995C136.844 91.8913 136.5 90.9309 136.5 89.1601C136.5 87.3421 136.841 86.4696 138.788 86.4696C139.348 86.4696 140.02 86.6293 140.46 86.7676C140.527 86.7924 140.589 86.8049 140.647 86.8049C140.74 86.8049 140.901 86.7676 140.948 86.5226L141.041 86.0333C141.077 85.8205 141.087 85.6367 140.793 85.5258C140.287 85.3577 139.54 85.2427 138.937 85.2427C136.25 85.2427 134.768 86.6128 134.768 89.0939C134.768 91.5949 136.147 92.9691 138.648 92.9691C139.185 92.9691 139.772 92.888 140.182 92.7539C140.869 92.5577 141.11 92.3449 141.11 91.5659V90.1387C141.11 89.7314 141.091 89.5145 141.049 89.1461C141.026 88.9821 140.992 88.7272 140.699 88.7272Z" fill="#878787"/>
<path d="M148.986 91.5801H145.981V89.4657H147.863C148.098 89.4657 148.265 89.3101 148.265 89.0824V88.6238C148.265 88.3936 148.107 88.2355 147.863 88.2355H145.981V86.5516H148.875C149.117 86.5516 149.281 86.4001 149.281 86.1675V85.7097C149.281 85.4762 149.118 85.314 148.875 85.314H145.001C144.623 85.314 144.348 85.5764 144.348 85.9423V92.1844C144.348 92.5495 144.624 92.8095 145.001 92.8095H148.986C149.225 92.8095 149.39 92.6546 149.39 92.4253V91.9667C149.39 91.7283 149.235 91.5801 148.986 91.5801Z" fill="#878787"/>
<path d="M28.7888 62.0272C28.6099 62.9726 28.1926 63.2524 27.4703 63.2938C26.7348 63.3526 25.9639 63.2524 25.2375 63.0148C24.5011 62.7863 24.14 63.1076 24.1804 63.6175C24.2389 64.1391 24.262 64.3254 24.0394 64.7906C23.8102 65.2575 24.14 66.0548 23.9611 66.5208C23.7689 66.9828 23.8704 67.2676 23.8102 67.9257C23.7689 68.588 23.8102 68.8182 23.6865 69.3306C23.5414 69.8447 23.6865 70.4987 23.0483 70.5525C22.4018 70.5948 21.7199 70.6908 21.3118 70.7843C20.8987 70.8746 20.5301 70.305 20.4518 69.8911C20.352 69.473 20.7165 68.4365 20.7165 68.1633C20.7165 67.8761 20.9943 66.8065 21.0883 66.3412C21.1691 65.8668 21.5806 64.6474 21.4008 64.2691C21.2269 63.8916 21.1691 62.5396 20.9482 62.1191C20.7165 61.6927 21.1691 61.0346 21.2631 60.7556C21.3571 60.4733 21.2631 59.8193 21.4 59.4037C21.5352 58.9715 21.4 58.5046 21.226 58.3242C21.0339 58.1362 20.7156 57.1552 20.8055 56.6726C20.8995 56.2148 20.4518 55.5541 20.5738 54.997C20.7156 54.4257 20.6324 53.7734 20.8055 53.3992C20.8055 53.3992 21.226 52.8834 21.6276 52.7054C22.0382 52.5059 22.5808 52.419 23.0491 53.2096C23.4985 54.011 23.6387 54.8554 23.7706 55.4672C23.9116 56.0674 23.872 57.1047 23.8118 57.9524C23.7706 58.7919 24.0023 59.7348 24.8145 59.7348C25.6365 59.7348 27.1883 59.4981 27.7837 60.1082C28.3815 60.7192 28.9751 61.0859 28.7888 62.0272ZM23.6387 74.5064C23.2701 74.3218 23.3146 74.6058 22.6805 74.4154C22.0382 74.2274 20.4856 74.4592 19.9933 74.4592C19.4797 74.4592 18.9412 74.4592 18.6658 74.369C18.4003 74.2721 13.7474 74.2721 12.7827 74.369C11.8287 74.4592 9.46057 74.6066 8.5915 74.5073C7.72242 74.4162 7.31427 75.398 7.04052 73.7522C6.76677 72.1139 6.53342 71.411 6.35367 70.9499C6.16897 70.4747 5.27104 70.2851 4.44979 70.4747C3.62277 70.6602 3.25172 71.3134 3.25172 71.3134C3.02745 72.3912 2.57065 72.6288 3.2039 73.5229C3.8454 74.4162 3.34902 74.6066 3.12309 75.0677C2.89799 75.533 2.25402 76.6225 2.16579 76.9412C2.07592 77.2756 2.07592 78.63 2.69928 79.0994C3.34902 79.5746 4.70952 79.284 5.12592 78.8709C5.53242 78.4413 6.3545 78.2062 7.13122 78.1076C7.90465 78.0174 7.95247 78.1606 8.9106 77.9735C9.86377 77.7839 10.2323 78.2062 11.1839 77.9197C12.1511 77.6374 12.2385 78.2062 13.4629 77.9197C14.7039 77.6374 14.7443 78.1076 15.662 77.875C16.5682 77.6374 17.3927 78.0588 17.941 78.0174C18.4828 77.9735 18.8926 78.303 19.7633 78.3966C20.634 78.4785 22.1231 78.76 22.7201 78.5804C23.3154 78.3966 23.543 78.3966 24.3189 78.207C25.0948 78.0182 25.2721 77.6051 25.3183 76.9412C25.3752 76.2863 25.2383 75.3972 25.0495 75.0189C24.8639 74.6397 24.0015 74.6894 23.6387 74.5064ZM57.8203 60.6173C57.4187 60.5652 56.327 60.2879 56.1399 60.1397C55.9609 60.0064 55.7771 59.6264 56.501 59.3466C57.2373 59.0659 57.9102 58.0882 57.6867 57.339C57.4591 56.5856 57.0098 53.9679 54.95 53.2113C52.9035 52.4712 52.6273 52.8346 51.8563 53.0341C51.0813 53.2113 48.1632 52.7071 47.1614 53.0341C46.1595 53.3487 45.4735 52.5672 44.16 52.6591C42.8317 52.7402 42.0591 52.5664 41.4151 52.794C40.7728 53.0341 39.639 53.0705 38.7295 53.0341C37.8069 52.9844 37.0409 53.0341 36.0333 53.3073C35.0314 53.5846 33.7575 53.4505 33.3403 53.7742C33.3403 53.7742 31.9361 54.944 32.5248 55.8795C33.1226 56.8224 33.8507 56.3505 34.6216 56.2528C35.3984 56.1659 36.2163 56.4946 36.951 56.5434C37.6782 56.5848 38.4071 56.3091 38.9555 56.3505C39.5013 56.4002 40.0529 56.3505 40.1882 56.2156C40.3143 56.0691 41.7358 56.3505 42.1003 56.3505C42.4623 56.3505 42.7311 56.2156 43.5589 56.4002C44.3826 56.5848 44.7858 56.2156 45.1569 56.3091C45.5246 56.4002 46.5223 56.4002 47.2554 56.4002C47.981 56.4002 48.3396 56.8216 48.8913 56.5848C49.4338 56.3505 50.119 56.3505 50.716 56.454C51.3088 56.5434 52.3527 56.5848 52.5803 57.1055C52.8178 57.6163 52.9464 58.4136 53.4048 58.4136C53.855 58.4136 53.5417 59.2547 53.5417 59.4434C53.5417 59.6264 53.5417 60.1993 52.7139 60.1993C51.8976 60.1993 51.2602 60.3334 50.8957 60.2879C50.5338 60.2382 49.2994 59.9112 48.935 60.1993C48.5713 60.4733 48.7165 59.9104 46.9692 60.0064C45.2476 60.1099 44.5154 59.8648 44.1592 59.7216C43.7881 59.5875 42.3716 59.4434 40.9195 59.7779C39.4527 60.1099 39.362 59.6794 38.9134 59.6794C38.4541 59.6794 36.9502 59.9567 36.1792 60.0064C35.3975 60.0461 34.1178 60.2879 33.3395 60.3334C32.571 60.3822 31.7036 60.9452 31.6533 61.2747C31.6178 61.5926 31.1181 63.3808 32.524 63.6126C33.9389 63.8402 34.6208 63.4321 35.1609 63.4321C35.7249 63.4321 36.2584 63.567 36.9939 63.4693C37.7294 63.3808 38.5473 63.7036 39.0915 63.3808C39.639 63.0537 40.6837 63.2392 41.1372 63.4313C41.5998 63.6117 42.7311 63.3808 43.0592 64.1291C43.3767 64.8808 43.789 66.2369 43.7403 66.5656C43.6958 66.8876 44.2425 68.0135 45.1091 67.7477C45.9773 67.4539 46.2972 67.2659 46.6584 67.1277C47.0261 66.9811 47.4318 65.8155 47.3436 65.3991C47.2554 64.9727 47.8424 63.7972 48.0692 63.6631C48.2959 63.5198 48.7173 63.6109 49.3505 63.6109C49.9854 63.6109 51.1233 63.4677 51.7673 63.6631C52.3989 63.8386 53.3158 63.5654 53.7215 63.4677C54.1304 63.3791 54.1807 63.755 54.95 63.6631C55.7284 63.5654 56.2314 63.5654 56.6445 63.5654C57.0469 63.5654 57.9646 64.082 58.0586 62.7243C58.146 61.3641 58.2886 62.0678 58.517 61.7838C58.738 61.5098 58.2408 60.6596 57.8203 60.6173ZM56.9595 72.6421C56.9595 72.2662 56.501 71.8945 56.4128 71.4284C56.3262 70.9599 55.5041 70.2934 55.1323 70.1601C54.7744 70.0269 53.949 69.4581 53.3504 69.6055C52.7592 69.7446 52.5795 68.9912 51.3501 69.3646C50.1182 69.7446 49.4882 69.1775 48.6653 69.4109C47.8416 69.6485 46.5743 69.5103 46.2964 69.1775C46.0202 68.848 45.5708 69.0806 45.1956 68.9399C44.8304 68.8016 44.1081 68.3239 43.1895 68.4771C42.2883 68.6145 41.1883 68.7561 40.4215 68.7561C39.639 68.7561 39.55 68.9026 38.9142 68.9026C38.2694 68.9026 35.5798 69.0326 34.8896 69.4109C34.8896 69.4109 32.5248 70.1593 32.1571 70.0691C31.7976 69.9747 30.6993 71.5162 31.1198 71.9872C31.5172 72.4542 32.2098 73.0676 34.526 72.6918C36.8562 72.32 37.9545 72.1727 38.9563 72.1727C39.9565 72.1727 40.7744 71.9475 41.4159 72.0369C42.0599 72.128 43.3775 71.8035 43.6966 71.9872C44.0091 72.1727 45.1099 72.2654 45.8866 72.1288C46.6584 71.9872 47.1102 72.2662 47.746 72.3209C48.3899 72.3581 49.4346 72.3209 49.7628 72.08C50.077 71.8564 50.8974 72.4136 51.482 72.5047C52.0814 72.604 52.6273 72.8341 52.7147 73.2539C52.8186 73.6661 52.9035 75.1762 52.7147 75.4924C52.5374 75.826 52.4962 76.3435 52.7147 76.9958C52.9464 77.649 52.6751 78.2616 53.0816 78.6731C53.4972 79.1052 53.3512 79.289 53.9993 79.3378C54.645 79.385 55.6361 78.5373 56.2314 78.5903C56.8209 78.63 57.2382 77.3187 57.1887 76.6655C57.145 76.0131 57.2382 75.4924 56.9603 74.7523C56.6874 73.9956 56.9595 73.0179 56.9595 72.6421ZM88.4044 64.2277C88.5932 62.5396 88.1876 61.7863 88.3714 60.3334C88.5586 58.8855 87.9616 58.368 87.8264 57.801C87.6879 57.2397 87.5568 56.4615 87.7299 55.8927C87.913 55.3323 87.556 55.0549 87.4488 54.6758C87.3663 54.2958 87.4488 52.4281 85.4006 52.6177C85.4006 52.6177 84.6791 53.1765 84.5414 54.7188C84.3955 56.276 84.1737 56.276 84.2602 56.8804C84.3575 57.4938 84.5802 58.5485 84.6791 58.921C84.7566 59.3035 84.896 60.4327 84.9479 60.8434C84.9892 61.273 84.3575 61.6903 84.4969 62.2532C84.6338 62.8211 84.4969 63.7558 84.7566 64.2674C85.0386 64.789 84.6791 65.5837 84.7566 66.4207C84.8597 67.2659 83.6625 68.6278 85.4006 68.862C87.1321 69.0922 88.1406 69.2346 88.6477 67.6401C89.1416 66.0548 88.2362 65.9082 88.4044 64.2277ZM86.3439 75.3566C86.0132 75.0272 85.319 74.4857 84.9603 74.6836C84.5983 74.8674 83.768 74.8343 82.3069 74.6886C80.8409 74.5387 81.5137 74.9386 80.5803 74.7291C79.4325 74.475 79.0697 74.6836 78.5263 74.59C77.9698 74.5056 77.1023 74.2076 76.9325 74.4377C76.7478 74.6836 76.0527 74.2713 74.5586 74.5478C73.0555 74.821 72.5896 74.3102 70.0986 74.7879C67.5994 75.2672 67.9812 74.4228 67.7454 73.9584C67.5046 73.4931 67.8872 71.1826 66.9876 69.9946C66.0913 68.7809 64.9757 69.901 64.9757 69.901C64.7951 69.8522 64.1207 70.2901 64.0036 70.9499C63.87 71.6089 64.3614 73.4186 64.3416 74.268C64.3062 75.1116 63.2269 75.8981 63.2269 75.8981C62.3636 77.7417 63.151 77.9048 63.3299 78.3163C63.5204 78.7343 64.6739 79.1334 65.2726 79.169C65.8588 79.2012 66.3239 79.4811 66.5506 79.2799C66.7749 79.0804 68.3687 78.919 68.3687 78.919C69.2675 78.7476 70.2685 78.5812 71.3569 78.4164C72.447 78.2542 72.5484 78.4827 73.3704 78.5092C74.1892 78.539 74.2296 78.3982 74.7351 78.3345C75.2347 78.2807 75.567 78.5563 76.6579 78.3394C77.7414 78.1308 77.4322 78.7045 78.4373 78.6309C79.43 78.5563 80.0798 78.9661 80.8986 78.7501C81.7132 78.5522 82.1824 78.9545 82.6367 78.8097C83.0877 78.6598 84.0483 78.5514 84.6387 78.7625C85.2439 78.9918 85.3223 78.9918 86.1864 78.8221C87.0505 78.664 87.2278 78.231 87.2171 77.9081C87.2088 77.5778 87.6087 76.9594 87.5947 76.2656C87.5782 75.5595 86.6712 75.6638 86.3439 75.3566ZM95.5063 62.4213C95.7841 62.3683 95.9169 62.5165 96.0604 62.7061C96.1972 62.8857 96.6466 63.1299 96.8297 63.3079C97.0003 63.4933 97.6072 63.6299 97.702 63.3079C97.7837 62.9726 98.2355 62.3683 98.6519 62.2764C99.0667 62.177 99.2992 61.6646 99.6603 61.297C100.017 60.9137 99.9803 60.4013 100.705 60.2597C101.427 60.1215 101.332 59.8954 101.523 59.6504C101.71 59.4145 102.253 58.8995 102.436 58.6239C102.62 58.3374 102.933 57.8308 103.025 57.6445C103.12 57.4466 103.025 57.2156 103.627 56.7446C104.213 56.2793 105.222 56.3712 105.582 56.5558C105.941 56.7446 107.5 57.8763 107.719 58.0154C107.942 58.1545 108.944 58.248 109.28 58.5295C109.594 58.8043 110.235 58.8532 110.549 58.9004C110.877 58.9525 111.33 59.1338 111.7 59.5105C112.062 59.8954 112.468 59.6016 112.784 60.0263C113.111 60.4443 113.932 60.3036 114.43 60.6852C114.928 61.0611 115.891 61.9999 116.848 61.9535C117.793 61.9005 118.526 60.3028 118.486 59.5626C118.439 58.8035 117.571 58.5286 117.302 58.2472C117.02 57.9616 116.296 58.0145 115.793 57.589C115.294 57.1643 114.567 56.8415 114.377 56.6097C114.206 56.3696 113.24 55.9523 112.967 56.1394C112.697 56.3282 112.148 55.9051 111.877 55.7172C111.601 55.5318 110.689 55.4341 110.006 55.0508C109.315 54.6915 109.136 54.7321 107.718 54.7817C106.319 54.8273 106.225 53.9779 105.769 53.7022C105.305 53.4215 105.989 53.2353 104.854 52.4405C103.708 51.6334 102.338 52.3478 102.338 52.9497C102.338 53.559 101.389 54.9663 101.389 54.9663C101.202 55.2528 99.7931 56.0384 99.6595 56.2785C99.516 56.5103 98.9199 57.1238 98.6964 57.3084C98.4713 57.493 97.9172 58.3838 97.7004 58.5767C97.4695 58.7638 96.969 58.8515 96.7266 59.1893C96.5097 59.5088 95.6926 60.3996 95.3735 60.7324C95.0561 61.0603 94.8714 61.3823 94.9101 61.7101C94.9645 62.0438 95.2408 62.4643 95.5063 62.4213ZM117.748 64.4644C117.432 64.3667 117.118 64.5083 116.429 64.5083C115.757 64.5083 114.473 64.274 113.649 64.5572C112.835 64.8386 111.093 64.8386 110.234 64.6085C109.363 64.3676 108.641 64.274 108.501 63.9545C108.363 63.6241 108.086 62.8253 107.995 62.4925C107.906 62.158 108.275 61.7846 107.4 61.1811C106.535 60.5776 107.324 60.0072 106.45 60.0072C105.583 60.0072 105.806 59.3085 105.035 59.8714C104.258 60.4269 103.98 60.9013 103.9 61.1819C103.9 61.1819 103.257 61.6066 104.167 62.5363C105.082 63.4793 103.765 63.8576 103.707 64.1349C103.669 64.4106 101.661 64.274 101.033 64.5083C100.39 64.7451 99.2019 64.5083 98.3749 64.6515C97.5577 64.7956 96.2335 64.6962 95.2391 64.9256C94.2381 65.1665 93.087 65.3536 92.8199 65.9662C92.5503 66.5747 91.9541 67.2742 92.9164 67.4133C93.8662 67.559 94.4137 67.737 94.5968 67.6501C94.784 67.559 96.0059 67.5101 96.377 67.6062C96.7299 67.6997 97.7037 68.0276 98.7937 67.6997C99.8846 67.3644 100.61 67.4133 101.167 67.4572C101.712 67.5101 102.574 67.2187 102.935 67.6501C103.183 67.9406 104.716 67.559 105.036 67.4572C105.349 67.3644 105.908 67.1393 106.719 67.2187C107.541 67.3247 108.364 67.607 109.281 67.4572C110.182 67.3239 111.601 67.559 112.15 67.4572C112.699 67.3644 113.147 67.886 113.425 67.7809C113.707 67.6997 114.34 67.9307 114.52 67.833C114.7 67.7378 115.615 67.5101 115.929 67.559C116.251 67.607 117.347 67.4572 117.894 67.4572C118.44 67.4572 119.536 67.737 119.429 66.799C119.346 65.8677 119.346 65.2666 118.851 64.8386C118.345 64.4106 118.073 64.5571 117.748 64.4644ZM118.486 75.3252C118.572 74.8061 118.345 73.6223 118.124 73.1595C117.897 72.7042 118.169 71.2902 117.897 70.9607C117.621 70.6287 117.019 70.0161 116.927 69.834C116.847 69.6527 116.019 68.9978 115.563 69.0458C115.118 69.0872 114.876 68.8091 114.06 68.9043C113.241 68.9978 109.909 69.0872 109.095 68.9043C108.275 68.713 107.813 68.9424 107.353 68.713C106.904 68.4763 105.486 68.713 104.536 68.6692C103.582 68.6195 101.939 68.8082 101.111 68.8082C100.292 68.8082 98.4161 68.5375 97.4687 68.713C96.4916 68.9043 93.8242 69.2296 93.4581 69.6891C93.4581 69.6891 92.0506 70.7305 92.5882 71.7157C93.139 72.7033 93.8242 72.4144 94.4616 72.3151C95.1022 72.2331 96.4223 72.5982 96.8758 72.2331C97.3244 71.8531 97.4712 71.8531 98.158 71.8995C98.8259 71.9475 100.393 71.8059 100.844 71.8531C101.295 71.8995 102.715 71.4764 103.217 71.6164C103.71 71.7546 104.258 71.9475 105.306 71.7546C106.356 71.5692 106.813 71.9475 107.54 72.0866C108.275 72.2331 109.909 72.1363 110.182 72.0369C110.455 71.9475 111.012 72.2762 111.957 72.3647C112.924 72.4624 113.877 72.6479 114.027 72.9625C114.162 73.3093 114.656 73.4923 114.794 74.6174C114.928 75.7424 114.608 75.5479 114.876 76.1141C115.156 76.6754 114.699 76.8634 114.834 77.4685C114.977 78.082 114.285 79.3412 115.295 79.3412C116.296 79.3412 117.349 79.4869 117.664 78.837C117.988 78.1846 118.895 78.2186 118.572 77.5265C118.25 76.8269 118.4 75.8318 118.486 75.3252ZM124.811 57.8018C126.367 57.6172 126.59 57.3804 126.782 57.4748C126.957 57.5741 127.815 56.8588 128.33 57.0062C128.825 57.156 129.693 56.7686 130.053 56.9565C130.412 57.156 130.976 57.2902 131.143 57.156C131.339 57.0062 132.837 57.4301 131.881 58.1371C130.922 58.8374 129.78 59.9112 129.276 60.5197C128.78 61.1281 128.194 61.5934 127.909 61.9775C127.641 62.3575 126.589 62.5405 126.545 63.0554C126.503 63.5687 126.325 63.8411 127.463 64.1681C128.608 64.5042 128.505 64.7385 128.875 64.9256C129.238 65.1127 129.464 64.9744 129.693 64.3626C129.918 63.7574 130.197 63.7988 130.644 63.6647C131.103 63.5215 131.65 62.5396 131.931 62.3054C132.197 62.0694 132.782 61.8757 132.973 61.7383C133.158 61.5917 133.713 60.8442 134.124 60.8036C134.985 60.7068 134.589 60.5635 134.938 60.0056C135.157 59.6256 136.264 59.1644 136.533 59.0651C136.8 58.9716 137.172 59.6256 137.393 59.8185C137.626 60.0056 138.618 60.3814 138.948 60.5635C139.265 60.7548 140.821 61.5909 141.264 61.7846C141.735 61.9759 142.231 62.254 142.497 62.538C142.771 62.8211 143.233 62.9246 143.685 63.2856C144.141 63.6631 144.505 63.8899 144.731 64.1283C144.971 64.3609 145.561 64.736 145.648 64.5936C145.737 64.4603 146.566 65.0108 146.566 64.88C146.566 64.736 147.745 63.7028 147.745 63.2384C147.745 62.7632 147.979 62.2532 146.932 61.6903C145.873 61.1257 145.832 60.8028 145.276 60.1976C144.731 59.5858 144.182 59.3441 144.103 59.1098C144.003 58.8838 143.498 59.2067 143.233 58.9707C142.961 58.7406 142.362 58.0866 142.049 58.0435C141.735 57.993 140.723 57.4276 141.678 57.3365C142.633 57.238 143.093 57.4276 143.093 57.4276C143.093 57.4276 143.727 57.1991 143.966 57.3365C144.182 57.4723 145.012 57.4276 145.239 57.238C145.472 57.0542 146.198 56.8572 146.791 56.8572C147.385 56.8572 148.244 56.8199 148.615 56.8199C148.977 56.8199 149.893 56.7669 149.794 56.1634C149.715 55.5533 149.477 54.9042 149.118 54.3339C148.743 53.7709 148.568 53.7709 147.474 53.9655C146.378 54.1451 145.873 53.9116 144.829 54.0557C143.787 54.1906 143.093 54.2428 142.463 54.1906C141.819 54.1451 139.088 54.5698 138.584 53.9116C138.075 53.2543 137.754 52.9232 137.352 52.7915C136.949 52.6566 136.71 52.4687 136.433 52.2311C136.164 51.9893 134.985 52.039 134.71 52.2311C134.429 52.4182 133.431 52.6566 133.888 53.535C133.888 53.535 134.938 54.2925 133.618 54.6277C132.296 54.9415 132.75 54.6575 132.477 54.5698C132.198 54.4771 128.64 54.5698 127.73 54.7122C126.815 54.8546 124.225 55.4672 123.892 56.3985C123.578 57.3382 123.261 57.9947 124.811 57.8018ZM149.743 66.905C149.16 66.4877 146.326 66.626 145.872 66.7609C145.419 66.905 144.505 67.1889 143.556 66.905C142.588 66.626 142.131 66.905 141.264 66.8594C140.402 66.8214 139.223 66.626 138.717 66.347C138.224 66.0639 138.396 64.991 138.396 64.991C138.396 64.991 138.209 63.0033 137.671 62.8319C135.296 62.0876 134.61 63.072 134.61 63.072C134.123 63.9545 134.428 64.1888 134.428 64.5191C134.428 64.8494 134.289 64.6101 134.526 65.7791C134.756 66.9563 133.751 66.626 133.342 66.626C132.923 66.626 131.969 66.9563 131.377 66.905C130.79 66.8594 129.692 66.626 128.825 66.8594C127.961 67.0954 127.238 67.3793 126.408 67.3338C125.581 67.2808 124.679 67.3338 123.4 68.2163C122.126 69.1096 122.768 70.2338 123.036 70.1386C123.306 70.0492 125.141 70.233 125.777 70.1899C126.408 70.1386 127.046 70.1386 128.271 69.9532C129.507 69.7661 134.207 70.0889 134.984 69.8621C135.755 69.6278 139.484 70.0898 140.447 70.05C141.411 69.9995 144.376 69.9076 145.418 69.9532C146.473 69.9987 145.604 69.8232 147.698 70.1899C149.791 70.565 150.164 70.05 150.531 69.6717C150.89 69.3033 151.032 67.8943 151.032 67.7072C151.034 67.5251 150.337 67.3338 149.743 66.905ZM149.522 76.5902C149.575 75.99 149.025 75.7515 148.294 75.6539C147.567 75.5595 147.109 75.5976 146.326 75.4179C145.561 75.2325 144.874 75.5595 144.412 75.4659C143.967 75.3732 143.872 75.7035 143.19 75.7035C142.498 75.7035 141.909 75.8972 140.772 75.6539C139.636 75.4179 136.889 75.5976 136.123 75.4659C135.345 75.3277 133.979 75.523 133.344 75.4179C132.706 75.3277 131.608 75.9279 131.198 75.7929C130.792 75.6539 130.883 75.3277 129.509 75.523C128.14 75.7035 128.507 74.0561 128.507 74.0561C128.507 73.7812 128.667 72.2579 127.963 71.7256C126.18 70.3563 124.812 71.5783 124.812 71.5783C124.041 72.5593 123.95 73.7373 124.129 74.1571C124.319 74.5793 124.899 74.7656 124.492 75.3285C124.093 75.8981 123.402 75.8401 123.726 77.7674C124.041 79.6814 126.685 79.3047 127.28 79.2642C127.871 79.222 129.738 78.7939 130.645 78.9396C131.569 79.0812 132.115 78.6524 132.56 78.6963C133.025 78.7459 132.974 78.6516 133.525 78.7459C134.067 78.8386 135.849 79.0804 136.492 78.8386C137.124 78.6019 137.393 78.7939 137.858 78.981C138.314 79.169 138.583 78.8386 139.042 78.9396C139.485 79.0266 140.052 79.1251 140.545 78.981C141.042 78.8386 141.498 78.9396 142.281 79.0804C143.054 79.222 143.787 79.2642 144.103 79.169C144.412 79.0804 145.831 79.1251 146.158 79.2219C146.476 79.3047 147.52 79.2219 148.834 79.169C150.166 79.1251 150.258 78 150.075 77.8493C149.893 77.7177 149.476 77.2028 149.522 76.5902ZM62.6076 57.4301C61.8845 56.6734 62.2506 56.454 62.747 55.5144C63.4421 54.2113 64.8949 54.66 64.8949 54.66C65.3006 54.66 65.8036 54.8057 66.3939 54.5251C66.9884 54.2444 67.761 54.0582 68.6342 54.2444C69.5017 54.4257 69.1735 54.5714 69.9972 54.1468C70.8193 53.7312 70.7698 54.2444 71.5465 54.1468C72.3191 54.0573 73.424 54.1004 73.8248 54.0118C74.237 53.9133 74.9264 53.9133 75.2463 54.4257C75.5629 54.9432 76.2918 56.3083 76.2918 57.1055C76.2918 57.897 76.6563 58.6917 76.5177 59.3457C76.3825 60.0064 76.15 60.6852 76.474 61.7383C76.9358 63.2392 76.2028 62.634 75.5637 63.1854C74.9272 63.7566 75.4285 64.6457 75.2867 65.2989C75.1498 65.9562 73.8256 65.8155 73.048 65.7203C72.2837 65.6259 71.1301 66.2361 70.9067 66.2361H69.5833C69.1743 66.2361 68.3168 66.1864 67.714 66.1864C67.1303 66.1864 66.6306 66.2791 66.1664 66.4737C65.7137 66.6492 65.1703 66.4207 63.983 66.2361C62.8039 66.0531 63.0158 64.4611 63.0784 63.8386C63.118 63.2384 63.6169 62.6729 63.428 62.4867C63.2483 62.3037 62.9787 61.3128 63.0158 60.8028C63.0784 60.2862 63.3464 59.4418 63.3926 58.7398C63.4264 58.0452 62.6076 57.4301 62.6076 57.4301ZM66.8969 60.3334C67.0371 60.7084 67.2201 60.9452 67.3504 61.6919C67.4914 62.4436 68.3531 62.4883 68.809 62.5388C69.27 62.5802 68.8602 62.9254 70.5884 62.865C72.3191 62.8228 72.0025 62.6738 72.3645 62.3567C72.7298 62.0222 72.7298 61.2747 72.7298 60.9452C72.7298 60.6173 72.7694 60.1107 73.2806 59.8201C73.7819 59.5345 73.9616 59.4045 73.8248 59.1123C73.692 58.8383 73.1429 58.5502 73.1429 58.5502C72.9648 57.9491 72.1864 57.762 71.9118 57.897C71.6463 58.0452 71.0493 57.4748 70.4111 57.5244C69.763 57.5741 68.5914 57.2397 67.761 57.2902C66.9538 57.339 66.8079 57.6627 66.7642 58.1371C66.7205 58.6007 66.7642 59.9567 66.8969 60.3334ZM4.12245 56.6361C3.44384 56.69 2.55663 56.7744 1.92997 56.7744C1.33877 56.7744 0.610697 56.9209 1.1615 55.7396C1.70652 54.5739 2.16662 55.0988 3.12392 54.8562C3.12392 54.8562 5.12592 54.8066 5.80535 54.4845C6.49385 54.1484 6.40397 54.1484 6.32152 53.2618C6.32152 53.2618 7.08422 51.6243 8.72177 52.2402C10.3742 52.8445 9.27834 54.059 11.1468 54.1484C13.0111 54.242 13.7004 54.7652 14.5596 54.386C15.4385 54.0135 16.7141 53.9688 17.2064 54.6633C17.7044 55.3778 17.6599 56.5914 16.5278 56.5426C15.3841 56.5045 14.609 56.5914 14.111 56.7239C13.6113 56.8721 13.0556 56.7744 12.645 57.0178C12.2385 57.2397 11.3224 57.1991 11.0561 57.1469C10.7798 57.1097 9.81925 57.6304 11.0956 58.0899C12.3786 58.5634 13.1991 58.7422 13.6996 59.2638C14.1968 59.7795 14.5159 59.4451 14.7937 60.0983C15.0625 60.7614 16.0223 61.5984 16.1114 63.9967C16.1971 66.3801 16.0215 66.7129 15.0131 67.6029C14.017 68.487 13.0548 69.8522 10.9579 69.9027C8.8603 69.9465 9.3138 69.7586 7.95082 69.5666C6.58372 69.3902 5.90347 68.9076 5.27104 68.6832C4.61965 68.4415 2.53272 66.8123 2.66052 64.3179C2.79575 61.8376 3.70605 60.9907 4.26592 60.4758C4.81094 59.9633 5.71795 58.5634 6.4922 58.33C7.2681 58.0899 7.997 57.5278 6.67442 57.4276C5.34937 57.3258 4.81259 56.5898 4.12245 56.6361ZM5.90512 64.4106C6.58537 66.8462 7.77602 66.2915 8.99882 66.6616C10.2323 67.0374 12.1511 66.3793 12.9707 65.1193C13.7944 63.8535 13.4233 62.5421 12.1511 61.7482C10.8681 60.946 10.0996 61.4171 9.59002 61.3152C9.09282 61.2283 8.81742 60.946 8.54037 61.0867C8.26827 61.2283 8.0407 61.1306 7.90382 61.2714C7.90382 61.2714 5.21497 61.9767 5.90512 64.4106Z" fill="#878787"/>
<path d="M53.1079 28.1007C54.5476 27.9567 55.5436 27.1843 55.7283 26.06C56.1521 23.439 54.4206 20.5042 52.2916 18.3145C48.5152 17.6787 44.2085 17.6067 39.4402 18.5579V22.8074C43.6042 26.0932 48.2719 27.4186 50.0653 27.8358C51.688 28.2067 52.5546 28.1587 53.1079 28.1007ZM52.0261 23.6162C52.971 23.6162 53.7387 24.3853 53.7387 25.3381C53.7387 26.2877 52.971 27.056 52.0261 27.056C51.0803 27.056 50.3151 26.2877 50.3151 25.3381C50.3151 24.3844 51.0803 23.6162 52.0261 23.6162Z" fill="#878787"/>
<path d="M56.3016 19.2388C57.4172 21.1147 58.2764 23.2506 58.0043 25.8915C57.8253 27.6358 56.7402 29.6144 52.4757 29.9944C49.7365 30.2436 45.5115 29.3975 39.4412 26.9255V37.0006C36.4687 37.6612 31.8059 39.8543 28.7584 41.6681C28.671 41.7302 28.6124 41.8353 28.6124 41.9471C28.6124 42.1408 28.7641 42.2898 28.9513 42.2898C28.9752 42.2898 28.9983 42.2849 29.0231 42.2816C33.1013 41.4065 37.9199 40.5952 42.7666 39.9221C44.5089 37.2407 48.0775 32.3455 51.4582 31.3777C54.9114 30.3876 58.762 32.8348 56.7938 38.3658C58.4207 38.2424 59.9452 38.1431 61.3222 38.0868V21.1669C59.8273 20.4541 58.1444 19.7843 56.3016 19.2388Z" fill="#878787"/>
<path d="M53.5632 33.6999C52.3008 33.3058 50.6435 33.9689 49.3654 35.2173C48.2177 36.3407 46.7261 38.1736 45.8718 39.5057C48.7322 39.1414 51.5455 38.8334 54.1693 38.5917C54.9427 36.4542 55.181 34.2082 53.5632 33.6999Z" fill="#878787"/>
<path d="M76.9836 21.475C76.9836 23.423 76.9803 25.7451 76.9836 27.5606L80.6215 28.8132L76.9836 30.0649V37.6333C80.4014 37.6631 83.9989 37.7367 87.6021 37.9197V17.1982C83.0539 17.7082 79.7483 19.3681 76.9836 21.475ZM64.3977 17.1982V37.9197C68.0059 37.7376 71.6026 37.6639 75.0212 37.6333V30.0649L71.3792 28.8132L75.0212 27.5606C75.0237 25.7451 75.0212 23.423 75.0212 21.475C72.2589 19.3681 68.9509 17.7082 64.3977 17.1982Z" fill="#878787"/>
<path d="M130.728 15.2311C130.728 14.9256 130.508 14.6722 130.22 14.6168C122.958 13.0364 114.391 8.2861 108.939 0C96.5097 2.99439 84.4828 3.82473 75.9999 3.74112C67.5227 3.82473 55.4917 2.99439 43.065 0C37.6122 8.2861 29.046 13.0364 21.7817 14.6217H21.7834C21.494 14.6756 21.2771 14.9256 21.2771 15.2344C21.2771 15.4446 21.3843 15.6351 21.5467 15.7443C24.0303 17.5938 25.5062 19.3315 27.5123 20.9475C31.081 23.8235 35.1542 22.5444 36.8594 20.7008C31.7579 20.9069 28.4828 18.4556 27.1908 16.6641C32.4077 14.7302 40.757 9.64545 44.6687 3.22536C53.7024 5.48129 67.9012 6.33979 75.9999 6.28432C84.1011 6.33896 98.3006 5.48129 107.338 3.22453C111.247 9.64462 119.598 14.7285 124.81 16.6633C123.521 18.4548 120.244 20.9061 115.147 20.6999C116.848 22.5436 120.922 23.8226 124.49 20.9466C126.498 19.324 127.979 17.5921 130.465 15.7394C130.473 15.7294 130.481 15.7278 130.489 15.7187L130.49 15.717C130.635 15.6052 130.728 15.4289 130.728 15.2311Z" fill="#878787"/>
<path d="M123.277 41.6864C120.229 39.8701 115.549 37.6613 112.564 36.9999V31.8853C109.104 32.3672 105.317 35.8939 100.435 35.6198C97.7399 35.4733 94.0624 34.2075 93.8398 29.059C93.7144 25.1606 96.2656 22.5007 100.247 22.3169C101.942 22.2357 104.04 23.0884 104.732 24.3642C105.945 26.6036 104.964 28.3081 104.663 28.4961C107.252 26.8867 110.11 26.9686 111.44 27.3726C108.67 28.1293 106.074 29.4903 104.965 30.0599C103.549 30.7801 101.24 31.7794 99.6883 30.8993C98.3929 30.1609 97.9798 28.3942 98.5636 27.4207C99.1655 26.4115 100.787 26.4653 100.929 27.5506C101.042 28.3909 100.725 28.8454 101.069 29.2337C101.444 29.6559 103.141 29.0979 103.423 27.4977C103.705 25.8982 102.515 24.3112 100.163 24.3965C96.4964 24.5389 95.7247 27.9522 96.4874 30.2097C97.3433 32.7447 99.4483 33.4666 101.501 33.4873C104.455 33.5171 109.426 29.9854 112.564 29.6302V18.5584C103.396 16.7321 95.9325 18.666 90.6842 21.167V38.086C99.1779 38.4495 113.24 40.1855 123.021 42.2924C123.046 42.299 123.071 42.2999 123.096 42.2999C123.28 42.2999 123.43 42.1509 123.43 41.9671C123.43 41.8487 123.368 41.7444 123.277 41.6864Z" fill="#878787"/>
</svg>
