<svg width="162" height="88" viewBox="0 0 162 88" fill="none" xmlns="http://www.w3.org/2000/svg">
<path d="M41.592 3.425L23.937 30.807L10.321 44.54L0 37.727C0 37.727 10.647 31.096 13.706 27.992C19.819 21.803 33.82 0 33.82 0L41.592 3.425Z" fill="white"/>
<path d="M107.928 7.45707L134.343 35.4561L152.067 48.2361L162 42.0551L151.747 36.9971L131.829 22.2551L113.027 4.60107L107.928 7.45707Z" fill="white"/>
<path d="M59.525 42.3632L66.926 18.7012L72.255 19.2552L71.39 31.2602L67.651 40.5682L59.525 42.3632Z" fill="white"/>
<path d="M43.523 39.9078L55.234 18.6358L61.555 18.4248L55.754 32.0498L49.344 39.4738L43.523 39.9078Z" fill="white"/>
<path d="M28.671 34.703L43.08 16.748L49.527 17.846L44.152 29.427L31.431 34.815L28.671 34.703Z" fill="white"/>
<path d="M96.518 43.0931L84.009 19.8441L78.4 19.4731L82.013 31.6681L89.478 41.6931L96.518 43.0931Z" fill="white"/>
<path d="M114.035 41.0622L97.292 19.4512L90.926 19.0542L97.368 32.1832L111.205 40.5262L114.035 41.0622Z" fill="white"/>
<path d="M128.81 36.7511L110.141 18.3481L103.974 19.3191L111.276 30.0341L123.349 36.7761L128.81 36.7511Z" fill="white"/>
<path d="M47.018 4.24023L41.546 10.6782C41.546 10.6782 68.507 15.2512 87.647 15.4972C94.736 15.5862 108.655 13.2802 108.655 13.2802L105.494 9.87523L47.018 4.24023Z" fill="white"/>
<path d="M49.16 55.6869L54.235 55.4769L99.679 55.4019L103.037 65.5589L52.329 67.3929L49.16 55.6869Z" fill="white"/>
<path d="M38.56 57.567L36.557 86.247L28.814 86.468L18.39 81.148L24.032 56.459L34.986 56.772L38.56 57.567Z" fill="white"/>
<path d="M129.143 56.7341L135.06 83.3241L127.625 85.4621L116.243 82.8801L112.544 57.6851L125.256 56.0781L129.143 56.7341Z" fill="white"/>
<path d="M24.032 56.459L29.619 54.329L41.404 53.498L54.235 55.477L55.985 62.297L52.329 67.393L41.277 66.474L37.108 67.7L24.032 56.459Z" fill="white"/>
<path d="M99.679 55.4272L117.549 54.8022L129.143 56.7342L129.415 63.3822L119.955 68.6642L112.643 64.4002L103.037 65.5592L98.103 60.3262L99.679 55.4272Z" fill="white"/>
<path d="M53.769 66.029L53.482 83.61L59.76 85.063L64.405 84.871L66.061 63.986L55.34 62.731L53.769 66.029Z" fill="white"/>
<path d="M86.76 62.5061L87.798 81.7061L92.904 82.8161L101.225 80.3831L97.426 60.4971L86.76 62.5061Z" fill="white"/>
<path d="M28.814 86.4682L65.959 87.3972L92.243 87.6122L127.625 85.4622L122.806 72.2432L95.79 76.0442L68.857 77.1512L36.192 77.4812L33.176 80.7892L28.814 86.4682Z" fill="white"/>
<path d="M33.079 43.3711L28.242 45.8991L59.74 49.5241L81.25 50.8571L140.683 47.1591L132.943 44.1541L88.12 45.8691L65.769 44.9921L33.079 43.3711Z" fill="white"/>
</svg>
