<svg width="147" height="84" viewBox="0 0 147 84" fill="none" xmlns="http://www.w3.org/2000/svg">
<path d="M11.995 69.5529L19.581 79.6979L32.956 83.3519L52.14 82.3669L65.911 74.3489L68.292 53.4189L25.296 58.3189L8.33 57.9759L11.995 69.5529Z" fill="white"/>
<path d="M41.9 37.9552L43.88 42.9442L51.064 50.0302L56.013 49.4592L63.795 43.0072L62.723 34.7892L58.297 30.5902L51.547 30.2832L47.103 31.9982L41.9 37.9552Z" fill="white"/>
<path d="M56.633 9.11322L57.914 12.2992L62.515 16.8372L65.692 16.4632L70.66 12.3442L69.98 7.07622L67.155 4.39022L62.836 4.17822L59.984 5.28822L56.633 9.11322Z" fill="white"/>
<path d="M0 35.4658L1.293 38.6738L5.885 43.2178L9.068 42.8338L14.029 38.7138L13.332 33.4488L10.525 30.7578L6.2 30.5518L3.35 31.6698L0 35.4658Z" fill="white"/>
<path d="M34.411 16.426L35.954 20.31L41.501 25.808L45.358 25.359L51.403 20.362L50.555 13.99L47.136 10.718L41.89 10.478L38.454 11.82L34.411 16.426Z" fill="white"/>
<path d="M24.721 34.8188L25.82 37.5448L29.736 41.4208L32.423 41.0988L36.689 37.5868L36.094 33.1088L33.685 30.8108L29.995 30.6318L27.577 31.5748L24.721 34.8188Z" fill="white"/>
<path d="M131.134 14.5942L121.227 16.6572L101.518 76.1412L104.169 76.8362L131.134 14.5942Z" fill="white"/>
<path d="M147 16.644L136.998 17.451L110.56 74.581L113.069 75.622L147 16.644Z" fill="white"/>
<path d="M92.353 45.565C92.353 45.565 87.241 47.48 85.37 51.789C83.51 56.104 84.362 63.103 84.362 63.103C84.362 63.103 85.734 69.154 90.85 67.916C95.966 66.686 101.572 59.786 101.56 57.091C101.556 54.405 102.569 42.405 92.353 45.565Z" fill="white"/>
<path d="M94.387 46.898L104.372 0.456L111.895 0L97.76 48.883L94.387 46.898Z" fill="white"/>
</svg>
