<svg width="156" height="77" viewBox="0 0 156 77" fill="none" xmlns="http://www.w3.org/2000/svg">
<path d="M66.361 2.86719L71.704 3.02019L119.426 6.27619L122.206 17.1872L68.828 15.3922L66.361 2.86719Z" fill="white"/>
<path d="M55.092 4.06398L52.358 49.083L44.212 48.747L33.657 42.396L39.919 1.83398L51.398 2.96698L55.092 4.06398Z" fill="white"/>
<path d="M150.265 9.83679L156 53.2438L148.037 54.9418L136.275 51.3958L132.767 9.61679L146.232 8.86279L150.265 9.83679Z" fill="white"/>
<path d="M39.919 1.834L45.942 0.008L58.377 0L71.704 3.02L73.041 10.309L68.828 15.392L57.291 13.616L52.824 14.596L39.919 1.834Z" fill="white"/>
<path d="M119.424 6.30176L138.234 6.95676L150.265 9.83676L150.063 16.8368L141.216 36.7418L132.378 16.6748L122.206 17.1868L117.41 11.3308L119.424 6.30176Z" fill="white"/>
<path d="M70.44 14.0648L70.323 47.5568L76.808 49.5428L81.7 49.6828L83.497 12.8218L72.332 10.7178L70.44 14.0648Z" fill="white"/>
<path d="M105.34 12.787L106.494 48.076L111.774 49.616L120.689 47.672L116.687 11.46L105.34 12.787Z" fill="white"/>
<path d="M0 44.2592L38.934 47.9612L66.516 50.1152L155.405 53.4022L151.316 39.1682L71.089 38.2302L42.728 37.4152L8.406 35.3652L4.997 38.6162L0 44.2592Z" fill="white"/>
<path d="M44.653 56.9042L47.273 63.5492L56.972 72.9092L63.747 72.0602L74.497 63.2902L73.174 52.3082L67.196 46.7642L57.973 46.4702L51.868 48.8422L44.653 56.9042Z" fill="white"/>
<path d="M107.752 58.7458L110.581 65.9828L121.356 76.0568L129.031 74.9898L141.358 65.1518L140.083 53.1298L133.437 47.1678L123.018 47.0298L116.069 49.7558L107.752 58.7458Z" fill="white"/>
</svg>
