<svg width="118" height="109" viewBox="0 0 118 109" fill="none" xmlns="http://www.w3.org/2000/svg">
<path d="M59.0093 26.1264C59.0093 26.1264 73.3833 16.693 79.7137 20.5113C85.876 24.2326 92.1436 24.2011 92.1436 24.2011L84.8335 35.7206L85.1901 38.2088L89.8235 42.3281L89.6741 44.5247L89.8014 48.2333L80.9913 48.4416C80.9913 48.4416 77.273 50.4834 76.9691 51.5064C75.9708 54.9862 81.9837 65.1085 81.9837 65.1085L85.1238 57.5918V56.8461L83.4574 52.5482L92.7726 58.3555L94.0655 67.0839L94.4178 68.7618L94.7396 72.6659L95.1589 76.5106C95.1589 76.5106 97.4595 81.9378 98.8127 81.277C102.534 79.4317 102.087 73.8072 102.087 73.8072L100.739 64.4826L100.231 62.0513L101.606 55.9047L100.46 46.9577L101.039 46.7706C101.039 46.7706 106.968 47.9824 109.339 47.3608C115.998 45.5877 118 42.8639 118 42.8639L116.087 29.3809L108.546 29.181L113.367 41.4293L106.416 42.2516L100.373 39.6009L105.783 36.3737L103.534 31.8964L99.9986 30.3971L95.0129 31.7586L93.7896 36.3975L93.7124 36.309L90.444 34.2741C90.444 34.2741 98.5529 24.759 97.1904 21.3761C96.5079 19.6847 89.9686 18.7705 87.4635 18.239C85.4312 17.8045 82.3334 16.159 79.7705 14.9582C71.924 11.2709 61.3006 16.8631 61.3006 16.8631L59.0093 26.1264Z" fill="white"/>
<path d="M15.7025 22.8628L19.9038 19.1551L35.535 19.4485L52.1857 13.9567L69.4468 2.05965L62.6079 0L54.909 7.61272C54.909 7.61272 43.1235 13.0952 38.3008 13.9405C35.2446 14.4754 23.7732 14.3249 23.7732 14.3249L14.8289 16.2391C14.8289 16.2391 11.2346 18.5607 10.2049 20.7207C9.76937 21.6604 10.2872 24.823 10.2872 24.823L15.7025 22.8628Z" fill="white"/>
<path d="M23.9022 29.9841L18.1482 23.772L11.2397 28.6396L13.2627 33.4103L23.5533 36.6333L31.9423 35.4105L37.4527 31.7691L37.3245 27.2926L33.5426 24.3035L30.3752 23.8893L26.3378 25.2755L30.0442 27.1446L29.1367 29.6814L23.9022 29.9841Z" fill="white"/>
<path d="M44.3043 79.1242L53.4947 86.7829L54.0219 104.111C54.0219 104.111 55.1968 106.898 55.6833 107.328C57.9983 109.301 59.3421 106.367 59.3421 106.367L63.0128 80.8982L62.4916 76.0824L51.5354 67.6958L48.841 66.6098L49.4318 57.9996L48.6661 52.836L50.3334 49.0458C50.3334 49.0458 60.8719 46.1808 63.3134 44.7564C65.6394 43.3788 69.2524 38.0018 69.2524 38.0018L77.5336 33.7676L78.0608 27.9297L69.4001 33.8909L54.943 35.5917C54.943 35.5917 52.6356 36.0518 51.9616 36.4532C47.1813 39.2833 44.4707 44.5328 44.4707 44.5328L43.1608 38.3206L33.4721 36.9881L28.2572 45.5456L33.3354 50.1088L32.787 51.7926L31.1944 51.9457C31.1944 51.9457 24.7172 53.8692 22.4854 53.8225C21.3079 53.8165 17.8681 52.6557 17.8681 52.6557L11.0937 43.1526L0 46.8714L12.4927 54.7026C12.4927 54.7026 16.4079 60.6154 18.2594 61.9199C19.1347 62.5416 21.2179 63.7508 22.2596 63.8852C26.8454 64.5009 30.2963 62.9472 30.2963 62.9472L33.551 60.6163L34.9076 64.5587L29.3778 66.9466L22.2587 67.6354L18.9479 72.0337L18.7926 86.856L25.9176 89.0789C25.9176 89.0789 25.6578 78.7475 28.5636 76.2184C29.6494 75.2728 33.7395 75.0917 33.7395 75.0917L44.3043 79.1242Z" fill="white"/>
</svg>
